<?xml version="1.0" encoding="UTF-8" standalone="no"?>
<!DOCTYPE svg PUBLIC "-//W3C//DTD SVG 1.1//EN"
 "http://www.w3.org/Graphics/SVG/1.1/DTD/svg11.dtd">
<!-- Generated by graphviz version 2.30.1 (20130221.2233)
 -->
<!-- Title: G Pages: 1 -->
<svg width="452pt" height="672pt"
 viewBox="0.00 0.00 452.00 672.00" xmlns="http://www.w3.org/2000/svg" xmlns:xlink="http://www.w3.org/1999/xlink">
<g id="graph0" class="graph" transform="scale(1 1) rotate(0) translate(4 668)">
<script type='text/javascript'>
  <![CDATA[

var windows = new Array()
var info = new Array()

function openWin(target, time) {
  win = window.open(target + "_" + time + ".html", target, "location=no,width=400,height=180,left=0,status=no");
  // hm, an associative array, how strange.
  info[target] = 1
}

function advanceTo(time) {
  arr = gup("wins").split(",");
  for (i=0; i < arr.length; i++) {
    if (arr[i] != "") {
      openWin(arr[i], time);
    }
  }
  str = '';
  // getting 'key_cols'
  for (var i in info) {
    str = str + ',' + i;
  }
  self.window.location.href = 'tm_' + time + '.svg?wins=' + str;
}

// off the netz
function gup(name) {
  name = name.replace(/[[]/,"\[").replace(/[]]/,"\]");
  var regexS = "[\?&]"+name+"=([^&#]*)";
  var regex = new RegExp(regexS);
  var results = regex.exec(window.location.href);
  if (results == null)
    return "";
  else
    return results[1];
}

  ]]>
</script>

<polygon fill="white" stroke="white" points="-4,5 -4,-668 449,-668 449,5 -4,5"/>
<!-- sumExpMixtureProbs -->
<g id="node1" class="node"><title>sumExpMixtureProbs</title>
<g id="a_node1"><a xlink:href="sumExpMixtureProbs.html" xlink:title="sumExpMixtureProbs">
<ellipse fill="none" stroke="black" cx="217" cy="-172" rx="123.615" ry="19.6"/>
<text text-anchor="middle" x="217" y="-167.6" font-family="Times,serif" font-size="18.00">sumExpMixtureProbs</text>
</a>
</g>
</g>
<!-- logSumExpMixtureProbs -->
<g id="node6" class="node"><title>logSumExpMixtureProbs</title>
<g id="a_node6"><a xlink:href="logSumExpMixtureProbs.html" xlink:title="logSumExpMixtureProbs">
<ellipse fill="none" stroke="black" cx="302" cy="-96" rx="142.193" ry="19.6"/>
<text text-anchor="middle" x="302" y="-91.6" font-family="Times,serif" font-size="18.00">logSumExpMixtureProbs</text>
</a>
</g>
</g>
<!-- sumExpMixtureProbs&#45;&gt;logSumExpMixtureProbs -->
<g id="edge4" class="edge"><title>sumExpMixtureProbs&#45;&gt;logSumExpMixtureProbs</title>
<g id="a_edge4"><a xlink:href="4-logSumExpMixtureProbs.html">
<path fill="none" stroke="black" stroke-width="5" d="M238.449,-152.327C246.603,-145.228 256.14,-136.925 265.31,-128.942"/>
<polygon fill="black" stroke="black" points="271.219,-135.399 280.558,-115.667 259.728,-122.2 271.219,-135.399"/>
</a>
</g>
</g>
<!-- expMixtureProb -->
<g id="node2" class="node"><title>expMixtureProb</title>
<g id="a_node2"><a xlink:href="expMixtureProb.html" xlink:title="expMixtureProb">
<ellipse fill="none" stroke="black" cx="217" cy="-248" rx="94.1301" ry="19.6"/>
<text text-anchor="middle" x="217" y="-243.6" font-family="Times,serif" font-size="18.00">expMixtureProb</text>
</a>
</g>
</g>
<!-- expMixtureProb&#45;&gt;sumExpMixtureProbs -->
<g id="edge1" class="edge"><title>expMixtureProb&#45;&gt;sumExpMixtureProbs</title>
<g id="a_edge1"><a xlink:href="3-sumExpMixtureProbs.html">
<path fill="none" stroke="black" stroke-width="5" d="M217,-227.943C217,-227.857 217,-227.77 217,-227.684"/>
<polygon fill="black" stroke="black" points="217,-191.992 226,-211.992 219,-201.992 219,-211.992 217,-211.992 215,-211.992 215,-201.992 208,-211.992 217,-191.992 217,-191.992"/>
<ellipse fill="none" stroke="black" cx="217" cy="-219.992" rx="8" ry="8"/>
</a>
</g>
</g>
<!-- mixtureProb -->
<g id="node3" class="node"><title>mixtureProb</title>
<g id="a_node3"><a xlink:href="mixtureProb.html" xlink:title="mixtureProb">
<ellipse fill="none" stroke="black" cx="222" cy="-400" rx="74.4303" ry="19.6"/>
<text text-anchor="middle" x="222" y="-395.6" font-family="Times,serif" font-size="18.00">mixtureProb</text>
</a>
</g>
</g>
<!-- mixtureProb&#45;&gt;expMixtureProb -->
<g id="edge7" class="edge"><title>mixtureProb&#45;&gt;expMixtureProb</title>
<g id="a_edge7"><a xlink:href="2-expMixtureProb.html">
<path fill="none" stroke="black" stroke-width="5" d="M200.274,-380.982C190.221,-371.215 179.34,-358.24 174,-344 167.758,-327.354 168.209,-320.808 174,-304 176.517,-296.695 180.447,-289.617 184.93,-283.107"/>
<polygon fill="black" stroke="black" points="191.813,-288.509 197.498,-267.432 178.16,-277.562 191.813,-288.509"/>
</a>
</g>
</g>
<!-- maxMixtureProb -->
<g id="node9" class="node"><title>maxMixtureProb</title>
<g id="a_node9"><a xlink:href="maxMixtureProb.html" xlink:title="maxMixtureProb">
<ellipse fill="none" stroke="black" cx="281" cy="-324" rx="97.9325" ry="19.6"/>
<text text-anchor="middle" x="281" y="-319.6" font-family="Times,serif" font-size="18.00">maxMixtureProb</text>
</a>
</g>
</g>
<!-- mixtureProb&#45;&gt;maxMixtureProb -->
<g id="edge8" class="edge"><title>mixtureProb&#45;&gt;maxMixtureProb</title>
<g id="a_edge8"><a xlink:href="1-maxMixtureProb.html">
<path fill="none" stroke="black" stroke-width="5" d="M236.888,-380.327C238.984,-377.697 241.212,-374.903 243.51,-372.021"/>
<polygon fill="black" stroke="black" points="266.117,-343.667 260.686,-364.916 261.446,-352.733 255.212,-360.552 253.648,-359.305 252.085,-358.059 258.319,-350.24 246.611,-353.695 266.117,-343.667 266.117,-343.667"/>
<ellipse fill="none" stroke="black" cx="248.661" cy="-365.561" rx="8.00001" ry="8.00001"/>
</a>
</g>
</g>
<!-- featureIn -->
<g id="node4" class="node"><title>featureIn</title>
<g id="a_node4"><a xlink:href="featureIn.html" xlink:title="featureIn">
<ellipse fill="none" stroke="black" cx="161" cy="-476" rx="56.9149" ry="19.6"/>
<text text-anchor="middle" x="161" y="-471.6" font-family="Times,serif" font-size="18.00">featureIn</text>
</a>
</g>
</g>
<!-- featureIn&#45;&gt;mixtureProb -->
<g id="edge2" class="edge"><title>featureIn&#45;&gt;mixtureProb</title>
<g id="a_edge2"><a xlink:href="0-mixtureProb.html">
<path fill="none" stroke="black" stroke-width="5" d="M176.079,-456.708C181.463,-450.176 187.718,-442.587 193.846,-435.154"/>
<polygon fill="black" stroke="black" points="200.701,-440.594 206.671,-419.596 187.198,-429.463 200.701,-440.594"/>
</a>
</g>
</g>
<!-- mfccChannel -->
<g id="node5" class="node"><title>mfccChannel</title>
<ellipse fill="none" stroke="black" cx="79" cy="-552" rx="79.2942" ry="19.6"/>
<text text-anchor="middle" x="79" y="-547.6" font-family="Times,serif" font-size="18.00">mfccChannel</text>
</g>
<!-- mfccChannel&#45;&gt;featureIn -->
<g id="edge3" class="edge"><title>mfccChannel&#45;&gt;featureIn</title>
<g id="a_edge3"><a xlink:href="5-featureIn.html">
<path fill="none" stroke="black" stroke-width="5" d="M99.2697,-532.708C107.373,-525.395 116.942,-516.759 126.097,-508.498"/>
<polygon fill="black" stroke="black" points="132.261,-514.722 141.246,-494.826 120.536,-501.73 132.261,-514.722"/>
</a>
</g>
</g>
<!-- gmmChannel -->
<g id="node10" class="node"><title>gmmChannel</title>
<g id="a_node10"><a xlink:href="gmmChannel.html" xlink:title="gmmChannel">
<ellipse fill="none" stroke="black" cx="183" cy="-20" rx="79.3553" ry="19.6"/>
<text text-anchor="middle" x="183" y="-15.6" font-family="Times,serif" font-size="18.00">gmmChannel</text>
</a>
</g>
</g>
<!-- mfccChannel&#45;&gt;gmmChannel -->
<g id="edge11" class="edge"><title>mfccChannel&#45;&gt;gmmChannel</title>
<g id="a_edge11"><a xlink:href="8-gmmChannel.html">
<path fill="none" stroke="black" stroke-width="5" stroke-dasharray="5,2" d="M76.0992,-532.11C71.9985,-503.722 65,-448.34 65,-401 65,-401 65,-401 65,-171 65,-121.113 105.816,-78.0211 139.438,-50.9876"/>
<polygon fill="black" stroke="black" points="144.984,-57.7632 155.632,-38.7054 134.409,-43.82 144.984,-57.7632"/>
</a>
</g>
</g>
<!-- logSumExpMixtureProbs&#45;&gt;gmmChannel -->
<g id="edge13" class="edge"><title>logSumExpMixtureProbs&#45;&gt;gmmChannel</title>
<g id="a_edge13"><a xlink:href="8-gmmChannel.html">
<path fill="none" stroke="black" stroke-width="5" stroke-dasharray="5,2" d="M272.278,-76.5176C259.064,-68.3002 243.209,-58.441 228.551,-49.3261"/>
<polygon fill="black" stroke="black" points="233.128,-41.8684 211.524,-38.7373 223.887,-56.7293 233.128,-41.8684"/>
</a>
</g>
</g>
<!-- params -->
<g id="node7" class="node"><title>params</title>
<g id="a_node7"><a xlink:href="params.html" xlink:title="params">
<polygon fill="none" stroke="black" points="309,-494 241,-494 241,-458 309,-458 309,-494"/>
<text text-anchor="middle" x="275" y="-471.6" font-family="Times,serif" font-size="18.00">params</text>
</a>
</g>
</g>
<!-- params&#45;&gt;logSumExpMixtureProbs -->
<g id="edge5" class="edge"><title>params&#45;&gt;logSumExpMixtureProbs</title>
<g id="a_edge5"><a xlink:href="4-logSumExpMixtureProbs.html">
<path fill="none" stroke="black" stroke-width="5" d="M305.948,-457.891C344.963,-433.784 407,-385.88 407,-325 407,-325 407,-325 407,-247 407,-200.836 392.372,-189.174 365,-152 358.889,-143.701 351.323,-135.775 343.579,-128.654"/>
<polygon fill="black" stroke="black" points="349.234,-121.977 328.328,-115.689 337.899,-135.31 349.234,-121.977"/>
</a>
</g>
</g>
<!-- params&#45;&gt;mixtureProb -->
<g id="edge10" class="edge"><title>params&#45;&gt;mixtureProb</title>
<g id="a_edge10"><a xlink:href="0-mixtureProb.html">
<path fill="none" stroke="black" stroke-width="5" d="M262.708,-457.837C258.034,-451.311 252.523,-443.616 247.091,-436.032"/>
<polygon fill="black" stroke="black" points="254.099,-430.79 235.34,-419.626 239.872,-440.98 254.099,-430.79"/>
</a>
</g>
</g>
<!-- mixParams -->
<g id="node8" class="node"><title>mixParams</title>
<ellipse fill="none" stroke="black" cx="275" cy="-552" rx="68.3838" ry="19.6"/>
<text text-anchor="middle" x="275" y="-547.6" font-family="Times,serif" font-size="18.00">mixParams</text>
</g>
<!-- mixParams&#45;&gt;params -->
<g id="edge6" class="edge"><title>mixParams&#45;&gt;params</title>
<g id="a_edge6"><a xlink:href="9-params.html">
<path fill="none" stroke="black" stroke-width="5" d="M275,-531.943C275,-526.574 275,-520.54 275,-514.489"/>
<polygon fill="black" stroke="black" points="283.75,-514.221 275,-494.221 266.25,-514.221 283.75,-514.221"/>
</a>
</g>
</g>
<!-- maxMixtureProb&#45;&gt;expMixtureProb -->
<g id="edge9" class="edge"><title>maxMixtureProb&#45;&gt;expMixtureProb</title>
<g id="a_edge9"><a xlink:href="2-expMixtureProb.html">
<path fill="none" stroke="black" stroke-width="5" d="M264.85,-304.327C259.241,-297.841 252.763,-290.351 246.421,-283.018"/>
<polygon fill="black" stroke="black" points="252.846,-277.071 233.145,-267.667 239.61,-288.518 252.846,-277.071"/>
</a>
</g>
</g>
<!-- maxMixtureProb&#45;&gt;logSumExpMixtureProbs -->
<g id="edge12" class="edge"><title>maxMixtureProb&#45;&gt;logSumExpMixtureProbs</title>
<g id="a_edge12"><a xlink:href="4-logSumExpMixtureProbs.html">
<path fill="none" stroke="black" stroke-width="5" d="M295.958,-304.423C303.797,-294.107 313.16,-280.802 320,-268 337.036,-236.112 342.447,-227.554 349,-192 352.222,-174.517 355.155,-168.678 349,-152 346.234,-144.505 341.94,-137.339 337.05,-130.801"/>
<polygon fill="black" stroke="black" points="343.519,-124.907 323.775,-115.595 330.336,-136.416 343.519,-124.907"/>
</a>
</g>
</g>
<!-- S -->
<g id="node11" class="node"><title>S</title>
<g id="a_node11"><a xlink:href="javascript:advanceTo(-2)" xlink:title="S">
<polygon fill="none" stroke="blue" stroke-width="3" points="275,-664 248,-636 275,-608 302,-636 275,-664"/>
<text text-anchor="middle" x="275" y="-631.6" font-family="Times,serif" font-size="18.00">S</text>
</a>
</g>
</g>
<!-- S&#45;&gt;mixParams -->
<g id="edge14" class="edge"><title>S&#45;&gt;mixParams</title>
<path fill="none" stroke="blue" stroke-width="5" d="M275,-607.695C275,-602.65 275,-597.293 275,-591.981"/>
<polygon fill="blue" stroke="blue" points="283.75,-591.906 275,-571.906 266.25,-591.906 283.75,-591.906"/>
</g>
<!-- T -->
<g id="node12" class="node"><title>T</title>
<g id="a_node12"><a xlink:href="javascript:advanceTo(0)" xlink:title="T">
<polygon fill="none" stroke="blue" stroke-width="3" points="347,-664 320,-636 347,-608 374,-636 347,-664"/>
<text text-anchor="middle" x="347" y="-631.6" font-family="Times,serif" font-size="18.00">T</text>
</a>
</g>
</g>
</g>
</svg>
