<?xml version="1.0" encoding="UTF-8" standalone="no"?>
<!DOCTYPE svg PUBLIC "-//W3C//DTD SVG 1.1//EN"
 "http://www.w3.org/Graphics/SVG/1.1/DTD/svg11.dtd">
<!-- Generated by graphviz version 2.30.1 (20130221.2233)
 -->
<!-- Title: G Pages: 1 -->
<svg width="1315pt" height="1882pt"
 viewBox="0.00 0.00 1315.41 1882.00" xmlns="http://www.w3.org/2000/svg" xmlns:xlink="http://www.w3.org/1999/xlink">
<g id="graph0" class="graph" transform="scale(1 1) rotate(0) translate(4 1878)">
<script type='text/javascript'>
  <![CDATA[

var windows = new Array()
var info = new Array()

function openWin(target, time) {
  win = window.open(target + "_" + time + ".html", target, "location=no,width=400,height=180,left=0,status=no");
  // hm, an associative array, how strange.
  info[target] = 1
}

function advanceTo(time) {
  arr = gup("wins").split(",");
  for (i=0; i < arr.length; i++) {
    if (arr[i] != "") {
      openWin(arr[i], time);
    }
  }
  str = '';
  // getting 'key_cols'
  for (var i in info) {
    str = str + ',' + i;
  }
  self.window.location.href = 'tm_' + time + '.svg?wins=' + str;
}

// off the netz
function gup(name) {
  name = name.replace(/[[]/,"\[").replace(/[]]/,"\]");
  var regexS = "[\?&]"+name+"=([^&#]*)";
  var regex = new RegExp(regexS);
  var results = regex.exec(window.location.href);
  if (results == null)
    return "";
  else
    return results[1];
}

  ]]>
</script>

<polygon fill="white" stroke="white" points="-4,5 -4,-1878 1312.41,-1878 1312.41,5 -4,5"/>
<!-- mvt_detector.inner_detector.frame_requests -->
<g id="node1" class="node"><title>mvt_detector.inner_detector.frame_requests</title>
<g id="a_node1"><a xlink:href="mvt_detector.inner_detector.frame_requests.html" xlink:title="mvt_detector.inner_detector.frame_requests\n(N)">
<ellipse fill="none" stroke="yellow" cx="587.41" cy="-1112" rx="236.261" ry="33.8824"/>
<text text-anchor="middle" x="587.41" y="-1117.6" font-family="Times,serif" font-size="18.00">mvt_detector.inner_detector.frame_requests</text>
<text text-anchor="middle" x="587.41" y="-1097.6" font-family="Times,serif" font-size="18.00">(N)</text>
</a>
</g>
</g>
<!-- mvt_detector.inner_detector.frame_requests&#45;&gt;mvt_detector.inner_detector.frame_requests -->
<g id="edge8" class="edge"><title>mvt_detector.inner_detector.frame_requests&#45;&gt;mvt_detector.inner_detector.frame_requests</title>
<g id="a_edge8"><a xlink:href="9-mvt_detector.inner_detector.frame_requests.html">
<path fill="none" stroke="yellow" stroke-width="5" d="M819.03,-1118.75C833.016,-1117.14 841.41,-1114.89 841.41,-1112 841.41,-1111.1 840.591,-1110.25 839.037,-1109.48"/>
<polygon fill="yellow" stroke="yellow" points="840.406,-1100.82 819.03,-1105.25 836.79,-1117.94 840.406,-1100.82"/>
</a>
</g>
</g>
<!-- mvt_detector.inner_detector.full_frames -->
<g id="node20" class="node"><title>mvt_detector.inner_detector.full_frames</title>
<g id="a_node20"><a xlink:href="mvt_detector.inner_detector.full_frames.html" xlink:title="mvt_detector.inner_detector.full_frames\n(D)">
<ellipse fill="none" stroke="red" cx="763.41" cy="-688" rx="217.123" ry="33.8824"/>
<text text-anchor="middle" x="763.41" y="-693.6" font-family="Times,serif" font-size="18.00">mvt_detector.inner_detector.full_frames</text>
<text text-anchor="middle" x="763.41" y="-673.6" font-family="Times,serif" font-size="18.00">(D)</text>
</a>
</g>
</g>
<!-- mvt_detector.inner_detector.frame_requests&#45;&gt;mvt_detector.inner_detector.full_frames -->
<g id="edge18" class="edge"><title>mvt_detector.inner_detector.frame_requests&#45;&gt;mvt_detector.inner_detector.full_frames</title>
<g id="a_edge18"><a xlink:href="5-mvt_detector.inner_detector.full_frames.html">
<path fill="none" stroke="yellow" stroke-width="5" d="M638.264,-1078.74C659.976,-1060.73 680.41,-1036.07 680.41,-1007 680.41,-1007 680.41,-1007 680.41,-793 680.41,-771.643 691.236,-752.147 705.067,-735.954"/>
<polygon fill="yellow" stroke="yellow" points="711.427,-741.965 718.995,-721.488 698.82,-729.828 711.427,-741.965"/>
</a>
</g>
</g>
<!-- mvt_detector.inner_detector.intermediate -->
<g id="node4" class="node"><title>mvt_detector.inner_detector.intermediate</title>
<g id="a_node4"><a xlink:href="mvt_detector.inner_detector.intermediate.html" xlink:title="mvt_detector.inner_detector.intermediate\n(D)">
<ellipse fill="none" stroke="red" cx="311.41" cy="-1006" rx="222.047" ry="33.8824"/>
<text text-anchor="middle" x="311.41" y="-1011.6" font-family="Times,serif" font-size="18.00">mvt_detector.inner_detector.intermediate</text>
<text text-anchor="middle" x="311.41" y="-991.6" font-family="Times,serif" font-size="18.00">(D)</text>
</a>
</g>
</g>
<!-- mvt_detector.inner_detector.frame_requests&#45;&gt;mvt_detector.inner_detector.intermediate -->
<g id="edge27" class="edge"><title>mvt_detector.inner_detector.frame_requests&#45;&gt;mvt_detector.inner_detector.intermediate</title>
<g id="a_edge27"><a xlink:href="2-mvt_detector.inner_detector.intermediate.html">
<path fill="none" stroke="yellow" stroke-width="5" d="M505.349,-1080.08C475.872,-1068.97 442.298,-1056.32 411.464,-1044.7"/>
<polygon fill="yellow" stroke="yellow" points="414.481,-1036.49 392.68,-1037.62 408.31,-1052.86 414.481,-1036.49"/>
</a>
</g>
</g>
<!-- mvt_detector.inner_detector.frame_specs -->
<g id="node2" class="node"><title>mvt_detector.inner_detector.frame_specs</title>
<polygon fill="none" stroke="black" points="343.41,-1236 29.4104,-1236 29.4104,-1200 343.41,-1200 343.41,-1236"/>
<text text-anchor="middle" x="186.41" y="-1213.6" font-family="Times,serif" font-size="18.00">mvt_detector.inner_detector.frame_specs</text>
</g>
<!-- mvt_detector.inner_detector.frame_specs&#45;&gt;mvt_detector.inner_detector.frame_requests -->
<g id="edge1" class="edge"><title>mvt_detector.inner_detector.frame_specs&#45;&gt;mvt_detector.inner_detector.frame_requests</title>
<g id="a_edge1"><a xlink:href="9-mvt_detector.inner_detector.frame_requests.html">
<path fill="none" stroke="black" stroke-width="5" d="M252.178,-1199.94C307.404,-1185.62 388.012,-1164.71 456.345,-1146.99"/>
<polygon fill="black" stroke="black" points="458.56,-1155.46 475.723,-1141.97 454.166,-1138.52 458.56,-1155.46"/>
</a>
</g>
</g>
<!-- mvt_detector.inner_detector.frames_with_index -->
<g id="node3" class="node"><title>mvt_detector.inner_detector.frames_with_index</title>
<g id="a_node3"><a xlink:href="mvt_detector.inner_detector.frames_with_index.html" xlink:title="mvt_detector.inner_detector.frames_with_index\n(D)">
<ellipse fill="none" stroke="red" cx="311.41" cy="-900" rx="256.52" ry="33.8824"/>
<text text-anchor="middle" x="311.41" y="-905.6" font-family="Times,serif" font-size="18.00">mvt_detector.inner_detector.frames_with_index</text>
<text text-anchor="middle" x="311.41" y="-885.6" font-family="Times,serif" font-size="18.00">(D)</text>
</a>
</g>
</g>
<!-- mvt_detector.inner_detector.frames -->
<g id="node12" class="node"><title>mvt_detector.inner_detector.frames</title>
<g id="a_node12"><a xlink:href="mvt_detector.inner_detector.frames.html" xlink:title="mvt_detector.inner_detector.frames\n(D)">
<ellipse fill="none" stroke="red" cx="311.41" cy="-794" rx="193.06" ry="33.8824"/>
<text text-anchor="middle" x="311.41" y="-799.6" font-family="Times,serif" font-size="18.00">mvt_detector.inner_detector.frames</text>
<text text-anchor="middle" x="311.41" y="-779.6" font-family="Times,serif" font-size="18.00">(D)</text>
</a>
</g>
</g>
<!-- mvt_detector.inner_detector.frames_with_index&#45;&gt;mvt_detector.inner_detector.frames -->
<g id="edge7" class="edge"><title>mvt_detector.inner_detector.frames_with_index&#45;&gt;mvt_detector.inner_detector.frames</title>
<g id="a_edge7"><a xlink:href="4-mvt_detector.inner_detector.frames.html">
<path fill="none" stroke="red" stroke-width="5" d="M311.41,-865.808C311.41,-860.273 311.41,-854.409 311.41,-848.52"/>
<polygon fill="red" stroke="red" points="320.16,-848.234 311.41,-828.234 302.66,-848.234 320.16,-848.234"/>
</a>
</g>
</g>
<!-- mvt_detector.inner_detector.intermediate&#45;&gt;mvt_detector.inner_detector.frames_with_index -->
<g id="edge2" class="edge"><title>mvt_detector.inner_detector.intermediate&#45;&gt;mvt_detector.inner_detector.frames_with_index</title>
<g id="a_edge2"><a xlink:href="3-mvt_detector.inner_detector.frames_with_index.html">
<path fill="none" stroke="red" stroke-width="5" d="M311.41,-971.808C311.41,-966.273 311.41,-960.409 311.41,-954.52"/>
<polygon fill="red" stroke="red" points="320.16,-954.234 311.41,-934.234 302.66,-954.234 320.16,-954.234"/>
</a>
</g>
</g>
<!-- mvt_detector.inner_detector.frame_vars -->
<g id="node5" class="node"><title>mvt_detector.inner_detector.frame_vars</title>
<g id="a_node5"><a xlink:href="mvt_detector.inner_detector.frame_vars.html" xlink:title="mvt_detector.inner_detector.frame_vars\n(D)">
<ellipse fill="none" stroke="red" cx="311.41" cy="-582" rx="215.501" ry="33.8824"/>
<text text-anchor="middle" x="311.41" y="-587.6" font-family="Times,serif" font-size="18.00">mvt_detector.inner_detector.frame_vars</text>
<text text-anchor="middle" x="311.41" y="-567.6" font-family="Times,serif" font-size="18.00">(D)</text>
</a>
</g>
</g>
<!-- mvt_detector.inner_detector.movement -->
<g id="node7" class="node"><title>mvt_detector.inner_detector.movement</title>
<g id="a_node7"><a xlink:href="mvt_detector.inner_detector.movement.html" xlink:title="mvt_detector.inner_detector.movement\n(D)">
<ellipse fill="none" stroke="red" cx="311.41" cy="-476" rx="212.198" ry="33.8824"/>
<text text-anchor="middle" x="311.41" y="-481.6" font-family="Times,serif" font-size="18.00">mvt_detector.inner_detector.movement</text>
<text text-anchor="middle" x="311.41" y="-461.6" font-family="Times,serif" font-size="18.00">(D)</text>
</a>
</g>
</g>
<!-- mvt_detector.inner_detector.frame_vars&#45;&gt;mvt_detector.inner_detector.movement -->
<g id="edge4" class="edge"><title>mvt_detector.inner_detector.frame_vars&#45;&gt;mvt_detector.inner_detector.movement</title>
<g id="a_edge4"><a xlink:href="13-mvt_detector.inner_detector.movement.html">
<path fill="none" stroke="red" stroke-width="5" d="M311.41,-547.808C311.41,-542.273 311.41,-536.409 311.41,-530.52"/>
<polygon fill="red" stroke="red" points="320.16,-530.234 311.41,-510.234 302.66,-530.234 320.16,-530.234"/>
</a>
</g>
</g>
<!-- mvt_detector.inner_detector.frame_stats -->
<g id="node6" class="node"><title>mvt_detector.inner_detector.frame_stats</title>
<g id="a_node6"><a xlink:href="mvt_detector.inner_detector.frame_stats.html" xlink:title="mvt_detector.inner_detector.frame_stats\n(D)">
<ellipse fill="none" stroke="red" cx="311.41" cy="-688" rx="217.123" ry="33.8824"/>
<text text-anchor="middle" x="311.41" y="-693.6" font-family="Times,serif" font-size="18.00">mvt_detector.inner_detector.frame_stats</text>
<text text-anchor="middle" x="311.41" y="-673.6" font-family="Times,serif" font-size="18.00">(D)</text>
</a>
</g>
</g>
<!-- mvt_detector.inner_detector.frame_stats&#45;&gt;mvt_detector.inner_detector.frame_vars -->
<g id="edge3" class="edge"><title>mvt_detector.inner_detector.frame_stats&#45;&gt;mvt_detector.inner_detector.frame_vars</title>
<g id="a_edge3"><a xlink:href="12-mvt_detector.inner_detector.frame_vars.html">
<path fill="none" stroke="red" stroke-width="5" d="M311.41,-653.808C311.41,-648.273 311.41,-642.409 311.41,-636.52"/>
<polygon fill="red" stroke="red" points="320.16,-636.234 311.41,-616.234 302.66,-636.234 320.16,-636.234"/>
</a>
</g>
</g>
<!-- mvt_detector.movement_count -->
<g id="node16" class="node"><title>mvt_detector.movement_count</title>
<g id="a_node16"><a xlink:href="mvt_detector.movement_count.html" xlink:title="mvt_detector.movement_count\n(D)">
<ellipse fill="none" stroke="red" cx="311.41" cy="-370" rx="170.119" ry="33.8824"/>
<text text-anchor="middle" x="311.41" y="-375.6" font-family="Times,serif" font-size="18.00">mvt_detector.movement_count</text>
<text text-anchor="middle" x="311.41" y="-355.6" font-family="Times,serif" font-size="18.00">(D)</text>
</a>
</g>
</g>
<!-- mvt_detector.inner_detector.movement&#45;&gt;mvt_detector.movement_count -->
<g id="edge13" class="edge"><title>mvt_detector.inner_detector.movement&#45;&gt;mvt_detector.movement_count</title>
<g id="a_edge13"><a xlink:href="4-mvt_detector.movement_count.html">
<path fill="none" stroke="red" stroke-width="5" d="M311.41,-441.808C311.41,-441.339 311.41,-440.867 311.41,-440.394"/>
<polygon fill="red" stroke="red" points="311.41,-404.234 320.41,-424.234 313.41,-414.234 313.41,-424.234 311.41,-424.234 309.41,-424.234 309.41,-414.234 302.41,-424.234 311.41,-404.234 311.41,-404.234"/>
<ellipse fill="none" stroke="red" cx="311.41" cy="-432.234" rx="8" ry="8"/>
</a>
</g>
</g>
<!-- mvt_detector.stdio -->
<g id="node22" class="node"><title>mvt_detector.stdio</title>
<g id="a_node22"><a xlink:href="mvt_detector.stdio.html" xlink:title="mvt_detector.stdio\n(D)">
<ellipse fill="none" stroke="red" cx="113.41" cy="-158" rx="106.161" ry="33.8824"/>
<text text-anchor="middle" x="113.41" y="-163.6" font-family="Times,serif" font-size="18.00">mvt_detector.stdio</text>
<text text-anchor="middle" x="113.41" y="-143.6" font-family="Times,serif" font-size="18.00">(D)</text>
</a>
</g>
</g>
<!-- mvt_detector.inner_detector.movement&#45;&gt;mvt_detector.stdio -->
<g id="edge25" class="edge"><title>mvt_detector.inner_detector.movement&#45;&gt;mvt_detector.stdio</title>
<g id="a_edge25"><a xlink:href="2-mvt_detector.stdio.html">
<path fill="none" stroke="red" stroke-width="5" stroke-dasharray="5,2" d="M189.976,-448.141C167.671,-437.858 146.893,-423.644 132.41,-404 95.4016,-353.801 94.464,-281.043 100.47,-227.858"/>
<polygon fill="red" stroke="red" points="105.863,-192.075 111.781,-213.193 106.35,-202.261 104.86,-212.149 102.882,-211.851 100.904,-211.553 102.395,-201.665 93.9825,-210.51 105.863,-192.075 105.863,-192.075"/>
<ellipse fill="none" stroke="red" cx="101.69" cy="-219.762" rx="8" ry="8"/>
</a>
</g>
</g>
<!-- mvt_detector.latest_movement_time -->
<g id="node23" class="node"><title>mvt_detector.latest_movement_time</title>
<g id="a_node23"><a xlink:href="mvt_detector.latest_movement_time.html" xlink:title="mvt_detector.latest_movement_time\n(D)">
<ellipse fill="none" stroke="red" cx="697.41" cy="-370" rx="197.485" ry="33.8824"/>
<text text-anchor="middle" x="697.41" y="-375.6" font-family="Times,serif" font-size="18.00">mvt_detector.latest_movement_time</text>
<text text-anchor="middle" x="697.41" y="-355.6" font-family="Times,serif" font-size="18.00">(D)</text>
</a>
</g>
</g>
<!-- mvt_detector.inner_detector.movement&#45;&gt;mvt_detector.latest_movement_time -->
<g id="edge28" class="edge"><title>mvt_detector.inner_detector.movement&#45;&gt;mvt_detector.latest_movement_time</title>
<g id="a_edge28"><a xlink:href="5-mvt_detector.latest_movement_time.html">
<path fill="none" stroke="red" stroke-width="5" d="M417.142,-446.513C460.789,-434.753 511.98,-420.961 558.584,-408.404"/>
<polygon fill="red" stroke="red" points="593.53,-398.988 576.56,-412.882 584.395,-403.521 574.739,-406.123 574.219,-404.192 573.699,-402.26 583.354,-399.659 571.877,-395.501 593.53,-398.988 593.53,-398.988"/>
<ellipse fill="none" stroke="red" cx="566.494" cy="-406.273" rx="8" ry="8"/>
</a>
</g>
</g>
<!-- placeSampler.samples -->
<g id="node8" class="node"><title>placeSampler.samples</title>
<g id="a_node8"><a xlink:href="placeSampler.samples.html" xlink:title="placeSampler.samples\n(D)">
<ellipse fill="none" stroke="red" cx="356.41" cy="-34" rx="125.237" ry="33.8824"/>
<text text-anchor="middle" x="356.41" y="-39.6" font-family="Times,serif" font-size="18.00">placeSampler.samples</text>
<text text-anchor="middle" x="356.41" y="-19.6" font-family="Times,serif" font-size="18.00">(D)</text>
</a>
</g>
</g>
<!-- placeSampler.trigger -->
<g id="node9" class="node"><title>placeSampler.trigger</title>
<g id="a_node9"><a xlink:href="placeSampler.trigger.html" xlink:title="placeSampler.trigger\n(D)">
<ellipse fill="none" stroke="red" cx="356.41" cy="-158" rx="118.13" ry="33.8824"/>
<text text-anchor="middle" x="356.41" y="-163.6" font-family="Times,serif" font-size="18.00">placeSampler.trigger</text>
<text text-anchor="middle" x="356.41" y="-143.6" font-family="Times,serif" font-size="18.00">(D)</text>
</a>
</g>
</g>
<!-- placeSampler.trigger&#45;&gt;placeSampler.samples -->
<g id="edge5" class="edge"><title>placeSampler.trigger&#45;&gt;placeSampler.samples</title>
<g id="a_edge5"><a xlink:href="0-placeSampler.samples.html" xlink:title=" +/&#45;">
<path fill="none" stroke="red" stroke-width="5" d="M356.41,-123.985C356.41,-117.746 356.41,-111.009 356.41,-104.131"/>
<polygon fill="red" stroke="red" points="356.41,-68.0413 365.41,-88.0413 358.41,-78.0413 358.41,-88.0413 356.41,-88.0413 354.41,-88.0413 354.41,-78.0413 347.41,-88.0414 356.41,-68.0413 356.41,-68.0413"/>
<ellipse fill="none" stroke="red" cx="356.41" cy="-96.0413" rx="8" ry="8"/>
</a>
</g>
<g id="a_edge5&#45;label"><a xlink:href="0-placeSampler.samples.html" xlink:title=" +/&#45;">
<text text-anchor="middle" x="369.41" y="-91.6" font-family="Times,serif" font-size="18.00"> +/&#45;</text>
</a>
</g>
</g>
<!-- mvt_detector.inner_detector.maxSeqTime -->
<g id="node10" class="node"><title>mvt_detector.inner_detector.maxSeqTime</title>
<g id="a_node10"><a xlink:href="mvt_detector.inner_detector.maxSeqTime.html" xlink:title="mvt_detector.inner_detector.maxSeqTime\n(N)">
<ellipse fill="none" stroke="yellow" cx="587.41" cy="-1218" rx="225.912" ry="33.8824"/>
<text text-anchor="middle" x="587.41" y="-1223.6" font-family="Times,serif" font-size="18.00">mvt_detector.inner_detector.maxSeqTime</text>
<text text-anchor="middle" x="587.41" y="-1203.6" font-family="Times,serif" font-size="18.00">(N)</text>
</a>
</g>
</g>
<!-- mvt_detector.inner_detector.maxSeqTime&#45;&gt;mvt_detector.inner_detector.frame_requests -->
<g id="edge20" class="edge"><title>mvt_detector.inner_detector.maxSeqTime&#45;&gt;mvt_detector.inner_detector.frame_requests</title>
<g id="a_edge20"><a xlink:href="9-mvt_detector.inner_detector.frame_requests.html">
<path fill="none" stroke="yellow" stroke-width="5" d="M587.41,-1183.81C587.41,-1178.27 587.41,-1172.41 587.41,-1166.52"/>
<polygon fill="yellow" stroke="yellow" points="596.16,-1166.23 587.41,-1146.23 578.66,-1166.23 596.16,-1166.23"/>
</a>
</g>
</g>
<!-- mvt_detector.inner_detector.sequence -->
<g id="node11" class="node"><title>mvt_detector.inner_detector.sequence</title>
<g id="a_node11"><a xlink:href="mvt_detector.inner_detector.sequence.html" xlink:title="mvt_detector.inner_detector.sequence\n(N)">
<polygon fill="none" stroke="yellow" points="911.41,-1338 621.41,-1338 621.41,-1290 911.41,-1290 911.41,-1338"/>
<text text-anchor="middle" x="766.41" y="-1319.6" font-family="Times,serif" font-size="18.00">mvt_detector.inner_detector.sequence</text>
<text text-anchor="middle" x="766.41" y="-1299.6" font-family="Times,serif" font-size="18.00">(N)</text>
</a>
</g>
</g>
<!-- mvt_detector.inner_detector.sequence&#45;&gt;mvt_detector.inner_detector.maxSeqTime -->
<g id="edge6" class="edge"><title>mvt_detector.inner_detector.sequence&#45;&gt;mvt_detector.inner_detector.maxSeqTime</title>
<g id="a_edge6"><a xlink:href="7-mvt_detector.inner_detector.maxSeqTime.html">
<path fill="none" stroke="yellow" stroke-width="5" d="M722.163,-1289.76C709.322,-1283.02 694.795,-1275.39 680.152,-1267.7"/>
<polygon fill="yellow" stroke="yellow" points="648.027,-1250.83 669.919,-1252.16 657.811,-1253.71 666.664,-1258.36 665.734,-1260.13 664.804,-1261.9 655.951,-1257.25 661.55,-1268.1 648.027,-1250.83 648.027,-1250.83"/>
<ellipse fill="none" stroke="yellow" cx="672.817" cy="-1263.85" rx="8.00001" ry="8.00001"/>
</a>
</g>
</g>
<!-- mvt_detector.inner_detector.minSeqTime -->
<g id="node15" class="node"><title>mvt_detector.inner_detector.minSeqTime</title>
<g id="a_node15"><a xlink:href="mvt_detector.inner_detector.minSeqTime.html" xlink:title="mvt_detector.inner_detector.minSeqTime\n(N)">
<ellipse fill="none" stroke="yellow" cx="1055.41" cy="-1218" rx="224.229" ry="33.8824"/>
<text text-anchor="middle" x="1055.41" y="-1223.6" font-family="Times,serif" font-size="18.00">mvt_detector.inner_detector.minSeqTime</text>
<text text-anchor="middle" x="1055.41" y="-1203.6" font-family="Times,serif" font-size="18.00">(N)</text>
</a>
</g>
</g>
<!-- mvt_detector.inner_detector.sequence&#45;&gt;mvt_detector.inner_detector.minSeqTime -->
<g id="edge11" class="edge"><title>mvt_detector.inner_detector.sequence&#45;&gt;mvt_detector.inner_detector.minSeqTime</title>
<g id="a_edge11"><a xlink:href="6-mvt_detector.inner_detector.minSeqTime.html">
<path fill="none" stroke="yellow" stroke-width="5" d="M837.478,-1289.88C865.117,-1280.89 897.637,-1270.32 929.002,-1260.12"/>
<polygon fill="yellow" stroke="yellow" points="963.273,-1248.97 947.038,-1263.71 954.382,-1253.96 944.872,-1257.06 944.254,-1255.15 943.635,-1253.25 953.145,-1250.16 941.47,-1246.6 963.273,-1248.97 963.273,-1248.97"/>
<ellipse fill="none" stroke="yellow" cx="936.646" cy="-1257.63" rx="8.00001" ry="8.00001"/>
</a>
</g>
</g>
<!-- mvt_detector.inner_detector.sequence&#45;&gt;mvt_detector.inner_detector.sequence -->
<g id="edge12" class="edge"><title>mvt_detector.inner_detector.sequence&#45;&gt;mvt_detector.inner_detector.sequence</title>
<g id="a_edge12"><a xlink:href="14-mvt_detector.inner_detector.sequence.html" xlink:title=" +/&#45;">
<path fill="none" stroke="yellow" stroke-width="5" d="M911.582,-1319.91C911.668,-1319.9 911.754,-1319.89 911.84,-1319.88"/>
<polygon fill="yellow" stroke="yellow" points="911.582,-1308.09 921.018,-1327.89 913.801,-1318.05 914.02,-1328.05 912.02,-1328.09 910.021,-1328.13 909.802,-1318.14 903.022,-1328.29 911.582,-1308.09 911.582,-1308.09"/>
<ellipse fill="none" stroke="yellow" cx="912.195" cy="-1336.09" rx="8" ry="8"/>
</a>
</g>
<g id="a_edge12&#45;label"><a xlink:href="14-mvt_detector.inner_detector.sequence.html" xlink:title=" +/&#45;">
<text text-anchor="middle" x="942.41" y="-1309.6" font-family="Times,serif" font-size="18.00"> +/&#45;</text>
</a>
</g>
</g>
<!-- mvt_detector.inner_detector.sequence&#45;&gt;mvt_detector.inner_detector.intermediate -->
<g id="edge15" class="edge"><title>mvt_detector.inner_detector.sequence&#45;&gt;mvt_detector.inner_detector.intermediate</title>
<g id="a_edge15"><a xlink:href="2-mvt_detector.inner_detector.intermediate.html">
<path fill="none" stroke="yellow" stroke-width="5" d="M621.247,-1311.48C415.695,-1307.79 60.2034,-1295.18 20.4104,-1252 -54.8977,-1170.28 94.5122,-1090.14 205.767,-1044.81"/>
<polygon fill="yellow" stroke="yellow" points="209.294,-1052.82 224.641,-1037.3 202.823,-1036.56 209.294,-1052.82"/>
</a>
</g>
</g>
<!-- mvt_detector.inner_detector.sequence&#45;&gt;mvt_detector.stdio -->
<g id="edge32" class="edge"><title>mvt_detector.inner_detector.sequence&#45;&gt;mvt_detector.stdio</title>
<g id="a_edge32"><a xlink:href="2-mvt_detector.stdio.html">
<path fill="none" stroke="yellow" stroke-width="5" stroke-dasharray="5,2" d="M911.497,-1310.43C1044.06,-1305.54 1228.31,-1291.58 1288.41,-1252 1302.54,-1242.69 1307.41,-1235.92 1307.41,-1219 1307.41,-1219 1307.41,-1219 1307.41,-263 1307.41,-202.981 288.549,-202.241 229.41,-192 227.035,-191.589 224.638,-191.147 222.227,-190.68"/>
<polygon fill="yellow" stroke="yellow" points="187.13,-182.488 208.652,-178.27 197.323,-182.813 207.061,-185.086 206.606,-187.034 206.152,-188.982 196.414,-186.709 204.561,-195.799 187.13,-182.488 187.13,-182.488"/>
<ellipse fill="none" stroke="yellow" cx="214.397" cy="-188.853" rx="8" ry="8"/>
</a>
</g>
</g>
<!-- mvt_detector.inner_detector.frames&#45;&gt;mvt_detector.inner_detector.frame_stats -->
<g id="edge9" class="edge"><title>mvt_detector.inner_detector.frames&#45;&gt;mvt_detector.inner_detector.frame_stats</title>
<g id="a_edge9"><a xlink:href="11-mvt_detector.inner_detector.frame_stats.html">
<path fill="none" stroke="red" stroke-width="5" d="M311.41,-759.808C311.41,-754.273 311.41,-748.409 311.41,-742.52"/>
<polygon fill="red" stroke="red" points="320.16,-742.234 311.41,-722.234 302.66,-742.234 320.16,-742.234"/>
</a>
</g>
</g>
<!-- mvt_detector.inner_detector.frames&#45;&gt;mvt_detector.stdio -->
<g id="edge21" class="edge"><title>mvt_detector.inner_detector.frames&#45;&gt;mvt_detector.stdio</title>
<g id="a_edge21"><a xlink:href="2-mvt_detector.stdio.html">
<path fill="none" stroke="red" stroke-width="5" stroke-dasharray="5,2" d="M149.015,-775.577C103.608,-761.055 66.4104,-735.093 66.4104,-689 66.4104,-689 66.4104,-689 66.4104,-263 66.4104,-249.821 69.5834,-236.469 74.2804,-223.924"/>
<polygon fill="red" stroke="red" points="90.1858,-191.519 89.4528,-213.439 87.575,-201.377 83.1689,-210.354 81.3735,-209.473 79.5781,-208.592 83.9842,-199.615 73.2942,-205.508 90.1858,-191.519 90.1858,-191.519"/>
<ellipse fill="none" stroke="red" cx="77.8486" cy="-216.655" rx="8.00001" ry="8.00001"/>
</a>
</g>
</g>
<!-- mvt_detector.inner_detector.frames&#45;&gt;mvt_detector.inner_detector.full_frames -->
<g id="edge31" class="edge"><title>mvt_detector.inner_detector.frames&#45;&gt;mvt_detector.inner_detector.full_frames</title>
<g id="a_edge31"><a xlink:href="5-mvt_detector.inner_detector.full_frames.html">
<path fill="none" stroke="red" stroke-width="5" d="M426.053,-766.622C486.364,-752.745 560.78,-735.623 624.362,-720.993"/>
<polygon fill="red" stroke="red" points="626.626,-729.451 644.155,-716.439 622.702,-712.397 626.626,-729.451"/>
</a>
</g>
</g>
<!-- mvt_detector.inner_detector.pruneBelow -->
<g id="node13" class="node"><title>mvt_detector.inner_detector.pruneBelow</title>
<g id="a_node13"><a xlink:href="mvt_detector.inner_detector.pruneBelow.html" xlink:title="mvt_detector.inner_detector.pruneBelow">
<ellipse fill="none" stroke="black" cx="751.41" cy="-1624" rx="220.426" ry="19.6"/>
<text text-anchor="middle" x="751.41" y="-1619.6" font-family="Times,serif" font-size="18.00">mvt_detector.inner_detector.pruneBelow</text>
</a>
</g>
</g>
<!-- mvt_detector.inner_detector.pruneBelow&#45;&gt;mvt_detector.inner_detector.sequence -->
<g id="edge24" class="edge"><title>mvt_detector.inner_detector.pruneBelow&#45;&gt;mvt_detector.inner_detector.sequence</title>
<g id="a_edge24"><a xlink:href="14-mvt_detector.inner_detector.sequence.html" xlink:title=" +/&#45;">
<path fill="none" stroke="black" stroke-width="5" d="M752.326,-1604.2C754.506,-1559.43 760.08,-1444.99 763.526,-1374.23"/>
<polygon fill="black" stroke="black" points="765.288,-1338.05 773.304,-1358.47 766.799,-1348.14 766.312,-1358.13 764.315,-1358.03 762.317,-1357.93 762.804,-1347.95 755.325,-1357.59 765.288,-1338.05 765.288,-1338.05"/>
<ellipse fill="none" stroke="black" cx="763.926" cy="-1366.02" rx="8" ry="8"/>
</a>
</g>
<g id="a_edge24&#45;label"><a xlink:href="14-mvt_detector.inner_detector.sequence.html" xlink:title=" +/&#45;">
<text text-anchor="middle" x="770.41" y="-1485.6" font-family="Times,serif" font-size="18.00"> +/&#45;</text>
</a>
</g>
</g>
<!-- mvt_detector.timer -->
<g id="node14" class="node"><title>mvt_detector.timer</title>
<ellipse fill="none" stroke="black" cx="825.41" cy="-1760" rx="108.342" ry="19.6"/>
<text text-anchor="middle" x="825.41" y="-1755.6" font-family="Times,serif" font-size="18.00">mvt_detector.timer</text>
</g>
<!-- mvt_detector.timer&#45;&gt;mvt_detector.inner_detector.pruneBelow -->
<g id="edge10" class="edge"><title>mvt_detector.timer&#45;&gt;mvt_detector.inner_detector.pruneBelow</title>
<g id="a_edge10"><a xlink:href="1-mvt_detector.inner_detector.pruneBelow.html">
<path fill="none" stroke="black" stroke-width="5" d="M812.284,-1740.12C804.912,-1729.19 795.749,-1715.06 788.41,-1702 781.307,-1689.36 774.232,-1675.14 768.2,-1662.39"/>
<polygon fill="black" stroke="black" points="776.047,-1658.51 759.726,-1644.01 760.155,-1665.84 776.047,-1658.51"/>
</a>
</g>
</g>
<!-- mvt_detector.inner_detector.trigger -->
<g id="node19" class="node"><title>mvt_detector.inner_detector.trigger</title>
<g id="a_node19"><a xlink:href="mvt_detector.inner_detector.trigger.html" xlink:title="mvt_detector.inner_detector.trigger">
<ellipse fill="none" stroke="black" cx="989.41" cy="-1682" rx="192" ry="19.6"/>
<text text-anchor="middle" x="989.41" y="-1677.6" font-family="Times,serif" font-size="18.00">mvt_detector.inner_detector.trigger</text>
</a>
</g>
</g>
<!-- mvt_detector.timer&#45;&gt;mvt_detector.inner_detector.trigger -->
<g id="edge17" class="edge"><title>mvt_detector.timer&#45;&gt;mvt_detector.inner_detector.trigger</title>
<g id="a_edge17"><a xlink:href="0-mvt_detector.inner_detector.trigger.html">
<path fill="none" stroke="black" stroke-width="5" d="M863.448,-1741.37C883.629,-1732.02 908.854,-1720.33 931.42,-1709.87"/>
<polygon fill="black" stroke="black" points="935.113,-1717.81 949.58,-1701.46 927.754,-1701.93 935.113,-1717.81"/>
</a>
</g>
</g>
<!-- mvt_detector.inner_detector.minSeqTime&#45;&gt;mvt_detector.inner_detector.frame_requests -->
<g id="edge29" class="edge"><title>mvt_detector.inner_detector.minSeqTime&#45;&gt;mvt_detector.inner_detector.frame_requests</title>
<g id="a_edge29"><a xlink:href="8-mvt_detector.inner_detector.frame_requests.html">
<path fill="none" stroke="yellow" stroke-width="5" d="M932.143,-1189.61C870.918,-1176 796.55,-1159.48 732.581,-1145.26"/>
<polygon fill="yellow" stroke="yellow" points="734.071,-1136.63 712.649,-1140.83 730.275,-1153.71 734.071,-1136.63"/>
</a>
</g>
</g>
<!-- mvt_detector.movement -->
<g id="node18" class="node"><title>mvt_detector.movement</title>
<g id="a_node18"><a xlink:href="mvt_detector.movement.html" xlink:title="mvt_detector.movement\n(D)">
<ellipse fill="none" stroke="red" cx="328.41" cy="-264" rx="135.148" ry="33.8824"/>
<text text-anchor="middle" x="328.41" y="-269.6" font-family="Times,serif" font-size="18.00">mvt_detector.movement</text>
<text text-anchor="middle" x="328.41" y="-249.6" font-family="Times,serif" font-size="18.00">(D)</text>
</a>
</g>
</g>
<!-- mvt_detector.movement_count&#45;&gt;mvt_detector.movement -->
<g id="edge30" class="edge"><title>mvt_detector.movement_count&#45;&gt;mvt_detector.movement</title>
<g id="a_edge30"><a xlink:href="6-mvt_detector.movement.html">
<path fill="none" stroke="red" stroke-width="5" d="M316.836,-335.808C317.756,-330.179 318.732,-324.21 319.711,-318.22"/>
<polygon fill="red" stroke="red" points="328.387,-319.383 322.978,-298.234 311.116,-316.56 328.387,-319.383"/>
</a>
</g>
</g>
<!-- mvt_detector.inner_detector.input_stream -->
<g id="node17" class="node"><title>mvt_detector.inner_detector.input_stream</title>
<g id="a_node17"><a xlink:href="mvt_detector.inner_detector.input_stream.html" xlink:title="mvt_detector.inner_detector.input_stream\n(N)">
<ellipse fill="none" stroke="yellow" cx="1003.41" cy="-1428" rx="224.29" ry="33.8824"/>
<text text-anchor="middle" x="1003.41" y="-1433.6" font-family="Times,serif" font-size="18.00">mvt_detector.inner_detector.input_stream</text>
<text text-anchor="middle" x="1003.41" y="-1413.6" font-family="Times,serif" font-size="18.00">(N)</text>
</a>
</g>
</g>
<!-- mvt_detector.inner_detector.input_stream&#45;&gt;mvt_detector.inner_detector.sequence -->
<g id="edge14" class="edge"><title>mvt_detector.inner_detector.input_stream&#45;&gt;mvt_detector.inner_detector.sequence</title>
<g id="a_edge14"><a xlink:href="1-mvt_detector.inner_detector.sequence.html" xlink:title=" +/&#45;">
<path fill="none" stroke="yellow" stroke-width="5" d="M936.762,-1395.5C909.163,-1382.46 876.889,-1367.21 847.9,-1353.51"/>
<polygon fill="yellow" stroke="yellow" points="815.281,-1338.1 837.209,-1338.5 825.177,-1340.56 834.218,-1344.83 833.364,-1346.64 832.509,-1348.45 823.468,-1344.18 829.518,-1354.78 815.281,-1338.1 815.281,-1338.1"/>
<ellipse fill="none" stroke="yellow" cx="840.597" cy="-1350.06" rx="8.00001" ry="8.00001"/>
</a>
</g>
<g id="a_edge14&#45;label"><a xlink:href="1-mvt_detector.inner_detector.sequence.html" xlink:title=" +/&#45;">
<text text-anchor="middle" x="904.41" y="-1361.6" font-family="Times,serif" font-size="18.00"> +/&#45;</text>
</a>
</g>
</g>
<!-- mvt_detector.movement&#45;&gt;placeSampler.trigger -->
<g id="edge16" class="edge"><title>mvt_detector.movement&#45;&gt;placeSampler.trigger</title>
<g id="a_edge16"><a xlink:href="23-placeSampler.trigger.html">
<path fill="none" stroke="red" stroke-width="5" d="M337.27,-230.094C338.878,-224.119 340.592,-217.753 342.308,-211.38"/>
<polygon fill="red" stroke="red" points="350.762,-213.636 347.513,-192.049 333.864,-209.087 350.762,-213.636"/>
</a>
</g>
</g>
<!-- mvt_detector.movement&#45;&gt;mvt_detector.stdio -->
<g id="edge26" class="edge"><title>mvt_detector.movement&#45;&gt;mvt_detector.stdio</title>
<g id="a_edge26"><a xlink:href="3-mvt_detector.stdio.html">
<path fill="none" stroke="red" stroke-width="5" stroke-dasharray="5,2" d="M267.662,-233.615C247.697,-223.957 225.06,-213.007 203.398,-202.529"/>
<polygon fill="red" stroke="red" points="170.684,-186.704 192.607,-187.312 180.557,-189.259 189.559,-193.613 188.688,-195.413 187.817,-197.214 178.815,-192.859 184.769,-203.515 170.684,-186.704 170.684,-186.704"/>
<ellipse fill="none" stroke="red" cx="195.89" cy="-198.897" rx="8.00001" ry="8.00001"/>
</a>
</g>
</g>
<!-- mvt_detector.inner_detector.samples -->
<g id="node21" class="node"><title>mvt_detector.inner_detector.samples</title>
<g id="a_node21"><a xlink:href="mvt_detector.inner_detector.samples.html" xlink:title="mvt_detector.inner_detector.samples\n(N)">
<ellipse fill="none" stroke="yellow" cx="998.41" cy="-1552" rx="199.106" ry="33.8824"/>
<text text-anchor="middle" x="998.41" y="-1557.6" font-family="Times,serif" font-size="18.00">mvt_detector.inner_detector.samples</text>
<text text-anchor="middle" x="998.41" y="-1537.6" font-family="Times,serif" font-size="18.00">(N)</text>
</a>
</g>
</g>
<!-- mvt_detector.inner_detector.trigger&#45;&gt;mvt_detector.inner_detector.samples -->
<g id="edge23" class="edge"><title>mvt_detector.inner_detector.trigger&#45;&gt;mvt_detector.inner_detector.samples</title>
<g id="a_edge23"><a xlink:href="0-mvt_detector.inner_detector.samples.html" xlink:title=" +/&#45;">
<path fill="none" stroke="black" stroke-width="5" d="M990.738,-1662.11C991.5,-1651.28 992.509,-1636.93 993.544,-1622.21"/>
<polygon fill="black" stroke="black" points="996.081,-1586.13 1003.66,-1606.71 997.374,-1596.25 996.673,-1606.22 994.678,-1606.08 992.683,-1605.94 993.384,-1595.97 985.7,-1605.45 996.081,-1586.13 996.081,-1586.13"/>
<ellipse fill="none" stroke="black" cx="994.117" cy="-1614.06" rx="8" ry="8"/>
</a>
</g>
<g id="a_edge23&#45;label"><a xlink:href="0-mvt_detector.inner_detector.samples.html" xlink:title=" +/&#45;">
<text text-anchor="middle" x="1007.41" y="-1619.6" font-family="Times,serif" font-size="18.00"> +/&#45;</text>
</a>
</g>
</g>
<!-- T -->
<g id="node25" class="node"><title>T</title>
<g id="a_node25"><a xlink:href="javascript:advanceTo(0)" xlink:title="T">
<polygon fill="none" stroke="blue" stroke-width="3" points="763.41,-610 736.41,-582 763.41,-554 790.41,-582 763.41,-610"/>
<text text-anchor="middle" x="763.41" y="-577.6" font-family="Times,serif" font-size="18.00">T</text>
</a>
</g>
</g>
<!-- mvt_detector.inner_detector.full_frames&#45;&gt;T -->
<g id="edge34" class="edge"><title>mvt_detector.inner_detector.full_frames&#45;&gt;T</title>
<path fill="none" stroke="red" stroke-width="5" d="M763.41,-653.808C763.41,-646.355 763.41,-638.306 763.41,-630.4"/>
<polygon fill="red" stroke="red" points="772.16,-630.314 763.41,-610.314 754.66,-630.314 772.16,-630.314"/>
</g>
<!-- mvt_detector.inner_detector.samples&#45;&gt;mvt_detector.inner_detector.input_stream -->
<g id="edge19" class="edge"><title>mvt_detector.inner_detector.samples&#45;&gt;mvt_detector.inner_detector.input_stream</title>
<g id="a_edge19"><a xlink:href="10-mvt_detector.inner_detector.input_stream.html">
<path fill="none" stroke="yellow" stroke-width="5" d="M999.763,-1517.99C1000.21,-1507 1000.73,-1494.47 1001.22,-1482.35"/>
<polygon fill="yellow" stroke="yellow" points="1009.98,-1482.38 1002.06,-1462.04 992.494,-1481.67 1009.98,-1482.38"/>
</a>
</g>
</g>
<!-- mvt_detector.latest_movement_time&#45;&gt;mvt_detector.movement -->
<g id="edge22" class="edge"><title>mvt_detector.latest_movement_time&#45;&gt;mvt_detector.movement</title>
<g id="a_edge22"><a xlink:href="6-mvt_detector.movement.html">
<path fill="none" stroke="red" stroke-width="5" d="M597.067,-340.719C547.124,-326.643 486.709,-309.615 435.83,-295.275"/>
<polygon fill="red" stroke="red" points="438.103,-286.825 416.48,-289.822 433.356,-303.669 438.103,-286.825"/>
</a>
</g>
</g>
<!-- S -->
<g id="node24" class="node"><title>S</title>
<g id="a_node24"><a xlink:href="javascript:advanceTo(-2)" xlink:title="S">
<polygon fill="none" stroke="blue" stroke-width="3" points="825.41,-1874 798.41,-1846 825.41,-1818 852.41,-1846 825.41,-1874"/>
<text text-anchor="middle" x="825.41" y="-1841.6" font-family="Times,serif" font-size="18.00">S</text>
</a>
</g>
</g>
<!-- S&#45;&gt;mvt_detector.timer -->
<g id="edge33" class="edge"><title>S&#45;&gt;mvt_detector.timer</title>
<path fill="none" stroke="blue" stroke-width="5" d="M825.41,-1817.96C825.41,-1812.26 825.41,-1806.13 825.41,-1800.08"/>
<polygon fill="blue" stroke="blue" points="834.16,-1800.01 825.41,-1780.01 816.66,-1800.01 834.16,-1800.01"/>
</g>
</g>
</svg>
