<?xml version="1.0" encoding="UTF-8" standalone="no"?>
<!DOCTYPE svg PUBLIC "-//W3C//DTD SVG 1.1//EN"
 "http://www.w3.org/Graphics/SVG/1.1/DTD/svg11.dtd">
<!-- Generated by graphviz version 2.30.1 (20130221.2233)
 -->
<!-- Title: G Pages: 1 -->
<svg width="465pt" height="292pt"
 viewBox="0.00 0.00 465.00 292.00" xmlns="http://www.w3.org/2000/svg" xmlns:xlink="http://www.w3.org/1999/xlink">
<g id="graph0" class="graph" transform="scale(1 1) rotate(0) translate(4 288)">
<script type='text/javascript'>
  <![CDATA[

var windows = new Array()
var info = new Array()

function openWin(target, time) {
  win = window.open(target + "_" + time + ".html", target, "location=no,width=400,height=180,left=0,status=no");
  // hm, an associative array, how strange.
  info[target] = 1
}

function advanceTo(time) {
  arr = gup("wins").split(",");
  for (i=0; i < arr.length; i++) {
    if (arr[i] != "") {
      openWin(arr[i], time);
    }
  }
  str = '';
  // getting 'key_cols'
  for (var i in info) {
    str = str + ',' + i;
  }
  self.window.location.href = 'tm_' + time + '.svg?wins=' + str;
}

// off the netz
function gup(name) {
  name = name.replace(/[[]/,"\[").replace(/[]]/,"\]");
  var regexS = "[\?&]"+name+"=([^&#]*)";
  var regex = new RegExp(regexS);
  var results = regex.exec(window.location.href);
  if (results == null)
    return "";
  else
    return results[1];
}

  ]]>
</script>

<polygon fill="white" stroke="white" points="-4,5 -4,-288 462,-288 462,5 -4,5"/>
<!-- mfccChannel -->
<g id="node1" class="node"><title>mfccChannel</title>
<g id="a_node1"><a xlink:href="mfccChannel.html" xlink:title="mfccChannel">
<ellipse fill="none" stroke="black" cx="79" cy="-20" rx="79.2942" ry="19.6"/>
<text text-anchor="middle" x="79" y="-15.6" font-family="Times,serif" font-size="18.00">mfccChannel</text>
</a>
</g>
</g>
<!-- mfcc -->
<g id="node2" class="node"><title>mfcc</title>
<g id="a_node2"><a xlink:href="mfcc.html" xlink:title="mfcc">
<polygon fill="none" stroke="black" points="106,-114 52,-114 52,-78 106,-78 106,-114"/>
<text text-anchor="middle" x="79" y="-91.6" font-family="Times,serif" font-size="18.00">mfcc</text>
</a>
</g>
</g>
<!-- mfcc&#45;&gt;mfccChannel -->
<g id="edge1" class="edge"><title>mfcc&#45;&gt;mfccChannel</title>
<g id="a_edge1"><a xlink:href="3-mfccChannel.html">
<path fill="none" stroke="black" stroke-width="5" stroke-dasharray="5,2" d="M79,-77.8369C79,-72.4245 79,-66.2081 79,-59.9176"/>
<polygon fill="black" stroke="black" points="87.7501,-59.8887 79,-39.8888 70.2501,-59.8888 87.7501,-59.8887"/>
</a>
</g>
</g>
<!-- ret -->
<g id="node3" class="node"><title>ret</title>
<g id="a_node3"><a xlink:href="ret.html" xlink:title="ret">
<ellipse fill="none" stroke="black" cx="79" cy="-172" rx="27" ry="19.6"/>
<text text-anchor="middle" x="79" y="-167.6" font-family="Times,serif" font-size="18.00">ret</text>
</a>
</g>
</g>
<!-- ret&#45;&gt;mfcc -->
<g id="edge4" class="edge"><title>ret&#45;&gt;mfcc</title>
<g id="a_edge4"><a xlink:href="1-mfcc.html">
<path fill="none" stroke="black" stroke-width="5" d="M79,-151.943C79,-146.574 79,-140.54 79,-134.489"/>
<polygon fill="black" stroke="black" points="87.7501,-134.221 79,-114.221 70.2501,-134.221 87.7501,-134.221"/>
</a>
</g>
</g>
<!-- audioIn -->
<g id="node4" class="node"><title>audioIn</title>
<ellipse fill="none" stroke="black" cx="79" cy="-256" rx="50.3073" ry="19.6"/>
<text text-anchor="middle" x="79" y="-251.6" font-family="Times,serif" font-size="18.00">audioIn</text>
</g>
<!-- audioIn&#45;&gt;ret -->
<g id="edge2" class="edge"><title>audioIn&#45;&gt;ret</title>
<g id="a_edge2"><a xlink:href="0-ret.html">
<path fill="none" stroke="black" stroke-width="5" d="M79,-235.981C79,-228.84 79,-220.436 79,-212.134"/>
<polygon fill="black" stroke="black" points="87.7501,-211.915 79,-191.915 70.2501,-211.915 87.7501,-211.915"/>
</a>
</g>
</g>
<!-- matrixPr -->
<g id="node5" class="node"><title>matrixPr</title>
<g id="a_node5"><a xlink:href="matrixPr.html" xlink:title="matrixPr">
<polygon fill="none" stroke="black" points="272.25,-190 193.75,-190 193.75,-154 272.25,-154 272.25,-190"/>
<text text-anchor="middle" x="233" y="-167.6" font-family="Times,serif" font-size="18.00">matrixPr</text>
</a>
</g>
</g>
<!-- speakerPr -->
<g id="node8" class="node"><title>speakerPr</title>
<g id="a_node8"><a xlink:href="speakerPr.html" xlink:title="speakerPr">
<ellipse fill="none" stroke="black" cx="233" cy="-96" rx="61.2774" ry="19.6"/>
<text text-anchor="middle" x="233" y="-91.6" font-family="Times,serif" font-size="18.00">speakerPr</text>
</a>
</g>
</g>
<!-- matrixPr&#45;&gt;speakerPr -->
<g id="edge6" class="edge"><title>matrixPr&#45;&gt;speakerPr</title>
<g id="a_edge6"><a xlink:href="7-speakerPr.html">
<path fill="none" stroke="black" stroke-width="5" d="M233,-153.837C233,-153.216 233,-152.584 233,-151.943"/>
<polygon fill="black" stroke="black" points="233,-115.889 242,-135.889 235,-125.889 235,-135.889 233,-135.889 231,-135.889 231,-125.889 224,-135.889 233,-115.889 233,-115.889"/>
<ellipse fill="none" stroke="black" cx="233" cy="-143.889" rx="8" ry="8"/>
</a>
</g>
</g>
<!-- gmmChannel -->
<g id="node6" class="node"><title>gmmChannel</title>
<ellipse fill="none" stroke="black" cx="233" cy="-256" rx="79.3553" ry="19.6"/>
<text text-anchor="middle" x="233" y="-251.6" font-family="Times,serif" font-size="18.00">gmmChannel</text>
</g>
<!-- gmmChannel&#45;&gt;matrixPr -->
<g id="edge3" class="edge"><title>gmmChannel&#45;&gt;matrixPr</title>
<g id="a_edge3"><a xlink:href="5-matrixPr.html">
<path fill="none" stroke="black" stroke-width="5" d="M233,-235.981C233,-228.318 233,-219.201 233,-210.316"/>
<polygon fill="black" stroke="black" points="241.75,-210.24 233,-190.24 224.25,-210.24 241.75,-210.24"/>
</a>
</g>
</g>
<!-- bestProb -->
<g id="node7" class="node"><title>bestProb</title>
<g id="a_node7"><a xlink:href="bestProb.html" xlink:title="bestProb">
<ellipse fill="none" stroke="black" cx="233" cy="-20" rx="56.3526" ry="19.6"/>
<text text-anchor="middle" x="233" y="-15.6" font-family="Times,serif" font-size="18.00">bestProb</text>
</a>
</g>
</g>
<!-- speakerPr&#45;&gt;bestProb -->
<g id="edge5" class="edge"><title>speakerPr&#45;&gt;bestProb</title>
<g id="a_edge5"><a xlink:href="8-bestProb.html">
<path fill="none" stroke="black" stroke-width="5" d="M233,-75.9432C233,-75.8568 233,-75.7704 233,-75.6837"/>
<polygon fill="black" stroke="black" points="233,-39.9923 242,-59.9922 235,-49.9923 235,-59.9923 233,-59.9923 231,-59.9923 231,-49.9923 224,-59.9923 233,-39.9923 233,-39.9923"/>
<ellipse fill="none" stroke="black" cx="233" cy="-67.9923" rx="8" ry="8"/>
</a>
</g>
</g>
<!-- S -->
<g id="node9" class="node"><title>S</title>
<g id="a_node9"><a xlink:href="javascript:advanceTo(-2)" xlink:title="S">
<polygon fill="none" stroke="blue" stroke-width="3" points="358,-284 331,-256 358,-228 385,-256 358,-284"/>
<text text-anchor="middle" x="358" y="-251.6" font-family="Times,serif" font-size="18.00">S</text>
</a>
</g>
</g>
<!-- T -->
<g id="node10" class="node"><title>T</title>
<g id="a_node10"><a xlink:href="javascript:advanceTo(0)" xlink:title="T">
<polygon fill="none" stroke="blue" stroke-width="3" points="430,-284 403,-256 430,-228 457,-256 430,-284"/>
<text text-anchor="middle" x="430" y="-251.6" font-family="Times,serif" font-size="18.00">T</text>
</a>
</g>
</g>
</g>
</svg>
